<?xml version="1.0" standalone="no"?>
<!DOCTYPE svg PUBLIC "-//W3C//DTD SVG 20010904//EN"
 "http://www.w3.org/TR/2001/REC-SVG-20010904/DTD/svg10.dtd">
<svg version="1.0" xmlns="http://www.w3.org/2000/svg"
 width="700.000000pt" height="700.000000pt" viewBox="0 0 700.000000 700.000000"
 preserveAspectRatio="xMidYMid meet">
<metadata>
Created by potrace 1.14, written by Peter Selinger 2001-2017
</metadata>
<g transform="translate(0.000000,700.000000) scale(0.100000,-0.100000)"
fill="#000000" stroke="none">
<path d="M3210 6939 c-25 -3 -74 -9 -110 -13 -67 -6 -212 -29 -290 -46 -25 -5
-56 -12 -70 -14 -142 -27 -401 -111 -602 -197 -253 -108 -480 -239 -706 -409
-148 -112 -167 -128 -325 -280 -402 -387 -703 -864 -877 -1390 -37 -112 -66
-209 -76 -260 -3 -14 -9 -41 -14 -60 -13 -48 -37 -175 -45 -231 -3 -25 -7 -57
-10 -70 -18 -117 -29 -283 -29 -464 -1 -149 10 -381 18 -394 2 -3 7 -33 10
-66 6 -65 9 -81 32 -200 176 -911 710 -1711 1485 -2224 126 -83 118 -78 247
-150 148 -82 402 -195 517 -230 22 -7 47 -15 55 -18 8 -4 17 -7 20 -8 3 -1 37
-11 75 -23 81 -24 215 -58 263 -67 18 -3 63 -12 100 -19 90 -19 162 -29 307
-43 104 -10 539 -10 635 0 143 15 257 32 325 47 22 5 56 12 75 15 19 3 62 13
95 21 33 9 67 17 75 19 40 8 255 77 335 108 116 44 164 66 305 134 768 375
1398 1070 1697 1873 60 160 123 378 148 510 35 182 43 236 60 400 13 128 13
514 0 625 -8 74 -42 311 -49 345 -3 14 -8 36 -11 50 -3 14 -7 34 -9 45 -40
208 -160 546 -278 779 -352 702 -899 1241 -1603 1580 -245 118 -582 231 -810
271 -16 2 -39 7 -50 9 -11 2 -40 7 -65 11 -25 4 -54 9 -65 11 -11 2 -49 7 -85
10 -36 3 -94 10 -130 14 -79 9 -508 9 -570 -1z"/>
</g>
</svg>
